PathFileType	4	(X/Y/Z)	Patient5_TMGait_0pt45_1_right_09.trc.trc
DataRate	CameraRate	NumFrames	NumMarkers	Units	OrigDataRate	OrigDataStartFrame	OrigNumFrames
58.091286307054	58.091286307054	4	32	mm	58.091286307054	71	       141
Frame#	Time	R.ASIS			L.ASIS			Chest			R.Shoulder			Neck			L.Shoulder			L.Elbow			L.Wrist			R.Elbow			R.Wrist			L.Thigh.Superior			L.Thigh.Lateral			L.Thigh.Inferior			L.Patella			L.Shank.Superior			L.Shank.Lateral			L.Shank.Inferior			L.Heel			L.Midfoot.Lateral			L.Midfoot.Superior			L.Toe			R.Thigh.Superior			R.Thigh.Lateral			R.Thigh.Inferior			R.Patella			R.Shank.Superior			R.Shank.Lateral			R.Shank.Inferior			R.Heel			R.Midfoot.Lateral			R.Midfoot.Superior			R.Toe			
		X1	Y1	Z1	X2	Y2	Z2	X3	Y3	Z3	X4	Y4	Z4	X5	Y5	Z5	X6	Y6	Z6	X7	Y7	Z7	X8	Y8	Z8	X9	Y9	Z9	X10	Y10	Z10	X11	Y11	Z11	X12	Y12	Z12	X13	Y13	Z13	X14	Y14	Z14	X15	Y15	Z15	X16	Y16	Z16	X17	Y17	Z17	X18	Y18	Z18	X19	Y19	Z19	X20	Y20	Z20	X21	Y21	Z21	X22	Y22	Z22	X23	Y23	Z23	X24	Y24	Z24	X25	Y25	Z25	X26	Y26	Z26	X27	Y27	Z27	X28	Y28	Z28	X29	Y29	Z29	X30	Y30	Z30	X31	Y31	Z31	X32	Y32	Z32	

71	15.795000000000	1062.124533904202	987.003462868169	579.827672996964	1102.109512973030	958.436918539495	348.343797241019	1169.834737460323	1434.495034059066	469.544003793385	1047.440328571766	1503.528669873413	617.184993599671	1050.918054016898	1559.732889968453	430.233246992828	1141.079118382972	1499.628146205721	264.514760495544	1073.610407482232	1184.337371145051	127.698795410398	1177.243507139402	915.690354100926	158.887140320141	948.124297488199	1188.655881698958	755.137833514308	1173.399218781024	1008.117152143567	722.875648861741	1152.487066182481	757.242701795465	343.684662436247	1098.773773446949	673.538581115821	295.336229663491	1172.421250245987	633.047551617548	372.269947106419	1193.562600546668	516.649680759373	383.854516012861	1154.010438669058	407.761999063883	398.752928491849	1105.278388290932	332.494638989175	313.626269228116	1130.856787109899	282.270967448658	404.307668628511	1015.700396054680	49.188615327267	399.298145642346	1107.008765186844	27.238993520887	341.945565843743	1201.859747701153	89.391087335460	391.788841039547	1309.280104496988	45.443770971556	400.060485787460	1061.389641734178	750.463710130893	618.951417873596	961.638881233587	683.682029193702	665.783922209527	1048.000293799639	617.286391264017	612.749381123260	1029.064902170415	513.885650976155	646.552885271782	946.487194709867	424.720547005170	601.559596343937	845.234832420782	396.157476855529	674.931456923748	868.712747083712	307.525074423030	597.387395983893	658.271536974773	159.305391790931	557.568076500170	714.174384106125	89.541171484259	623.351980730354	837.069925877850	106.135486187092	610.326594388808	911.705241500768	40.499489734085	598.201867175739	
72	15.812214285714	1061.846144477360	989.827902998619	576.604486936544	1103.456930912908	959.455665152817	345.686773204545	1170.127406942759	1435.954254501265	467.312906343894	1045.206956664431	1505.374988663115	612.606596369976	1052.310863277083	1561.449286068562	425.721453073349	1145.663771429651	1501.023340403846	261.931345304023	1083.208626382643	1185.585314846440	123.412317884911	1187.979970261002	917.705232240173	156.882753665727	943.835950221493	1190.457372169188	748.975639850418	1169.238354633340	1009.646772059754	719.892161796996	1151.328023916333	757.514106506758	341.370385489386	1096.576575046630	674.288288274576	292.222230654218	1169.500235562154	632.671530947482	369.046710864926	1188.955627324582	515.769783853022	380.043335184482	1148.520873820615	407.519929347106	395.555013127708	1098.358400191396	332.289325897435	311.224582343021	1124.624808659126	282.275531531679	401.957735348097	1008.016959111573	49.287834438246	398.918987830404	1099.317746036371	27.097633472983	341.650366041413	1194.298055931146	89.347038715883	391.302395843717	1301.574130553338	45.363142062313	400.017840869427	1066.458786122848	754.812827475683	619.904712675356	969.143199278592	686.169243879307	666.954006255780	1057.965217233021	621.198766567130	615.821874776495	1040.457229523080	516.770838878360	650.340260638429	956.110452127013	427.816401813723	604.750549546979	853.718338252346	401.648596188854	677.917518378276	874.461608464883	312.934219432828	599.514701203832	660.320208610627	175.067228938675	558.273682572985	711.742331726222	101.277434482101	623.290642303143	835.689483208200	111.593019088503	611.731545897697	906.566632977389	40.145223309350	599.147220593988	
73	15.829428571429	1061.420091244490	992.445867173305	573.960372701784	1104.427185658940	960.392184919355	343.032717268544	1170.041402696452	1437.323865814414	465.008511758320	1042.764324541398	1507.145053943768	608.056396050030	1053.356436874046	1563.044721611491	421.308213026448	1149.535628022745	1502.242702363136	259.360300337288	1092.443855590765	1186.567540456783	119.429214127726	1198.500766000432	919.507075003392	155.011493049221	939.252199353083	1192.141253130632	742.718489412610	1164.840426400389	1011.125873695492	717.066993636302	1149.797831327497	757.698611360534	338.774761965371	1093.912100056621	675.022045295478	289.291466018168	1166.419309346809	632.311675087360	365.693229935361	1184.245666718462	514.936039933799	376.188806271099	1142.946586356378	407.331935565258	392.420582291732	1091.215783573299	332.205343869728	308.918387115750	1118.335088295512	282.326597504290	399.657600486889	1000.250268440957	49.407038308432	398.552827661146	1091.536969355725	26.966500730842	341.365323771189	1186.659144220515	89.303820793672	390.798569883652	1293.785279872695	45.276852258593	399.955178686771	1071.016237758563	759.272346809667	620.975282321465	976.297933461547	688.912451031008	668.276982456195	1067.387902312328	625.406000421655	618.810990977255	1051.363165656451	520.103252944339	654.034205296220	965.546537088284	431.339478974574	607.888660330227	862.094369736780	407.454681647414	680.808806013733	880.387540964448	318.654806731980	601.592262446987	663.282516422652	190.478890416522	558.791402915063	710.187255948262	113.181937825714	623.257321809558	834.953929831134	117.511617111992	613.312989740128	902.094478008015	40.020620693423	600.619030930151	
74	15.846642857143	1060.827912009160	994.897017457767	571.814155227160	1105.061982440037	961.227269639561	340.340613129181	1169.641758808722	1438.649889309894	462.612881579788	1040.191774977724	1508.876029405537	603.566119676738	1054.083102856822	1564.549747934630	417.008801552480	1152.678684469859	1503.337973317965	256.769789241168	1101.100862216299	1187.322089940902	115.795444986441	1208.746511360188	921.195325097712	153.255824069818	934.340457844955	1193.779897170705	736.389449462217	1160.169862032061	1012.626422237455	714.369938505334	1147.898363633494	757.711720622936	335.823495625957	1090.735884052037	675.683954531232	286.572414525584	1163.156298021127	631.913825281153	362.226736267298	1179.418277365688	514.162763512455	372.387172701030	1137.297457466463	407.203870666478	389.448334970808	1083.919611500560	332.234751560119	306.792640630573	1111.993972790273	282.423561673973	397.482653215885	992.435674239201	49.539751086486	398.206904674967	1083.701568322114	26.852784656465	341.102499052719	1178.960719503362	89.283137279661	390.289844035005	1285.945945972066	45.219472682924	399.859761966894	1074.938589088173	763.784006587077	621.926185985154	982.857319026801	691.932730822756	669.612414561243	1075.971698541593	629.847221099176	621.566624956468	1061.432230729989	523.852690475430	657.515583629562	974.488919572681	435.185232617270	610.875603491192	870.036812526548	413.373591536763	683.469020146986	886.339215532843	324.419188700776	603.592573256469	667.054726626824	204.536015436295	559.121908172120	709.738963824264	124.501396352214	623.405409492110	835.119035810243	123.527048839535	615.193330755657	898.804858153964	40.271870437244	602.875533758674	
